<svg width="64" height="43" viewBox="0 0 64 43" fill="none" xmlns="http://www.w3.org/2000/svg">
<path d="M0.793945 40.2656L3.08398 39.4453C3.94987 39.1263 4.61068 38.5566 5.06641 37.7363C5.52214 36.916 5.75 35.9134 5.75 34.7285V8.20508C5.75 7.04297 5.51074 6.04036 5.03223 5.19727C4.5765 4.35417 3.92708 3.7959 3.08398 3.52246L0.623047 2.73633L0.930664 0.0361328H17.0293L17.3027 2.73633L15.2861 3.38574C14.2835 3.68197 13.5088 4.26302 12.9619 5.12891C12.4378 5.97201 12.1758 7.30501 12.1758 9.12793V33.9082C12.1758 35.64 12.4606 36.973 13.0303 37.9072C13.5999 38.8187 14.3519 39.3997 15.2861 39.6504L17.3711 40.1973L17.0977 43H0.930664L0.793945 40.2656ZM23.8311 40.2656L26.1211 39.4453C26.987 39.1263 27.6478 38.5566 28.1035 37.7363C28.5592 36.916 28.7871 35.9134 28.7871 34.7285V8.20508C28.7871 7.04297 28.5479 6.04036 28.0693 5.19727C27.6136 4.35417 26.9642 3.7959 26.1211 3.52246L23.6602 2.73633L23.9678 0.0361328H40.0664L40.3398 2.73633L38.3232 3.38574C37.3206 3.68197 36.5459 4.26302 35.999 5.12891C35.4749 5.97201 35.2129 7.30501 35.2129 9.12793V33.9082C35.2129 35.64 35.4977 36.973 36.0674 37.9072C36.637 38.8187 37.389 39.3997 38.3232 39.6504L40.4082 40.1973L40.1348 43H23.9678L23.8311 40.2656ZM46.8682 40.2656L49.1582 39.4453C50.0241 39.1263 50.6849 38.5566 51.1406 37.7363C51.5964 36.916 51.8242 35.9134 51.8242 34.7285V8.20508C51.8242 7.04297 51.585 6.04036 51.1064 5.19727C50.6507 4.35417 50.0013 3.7959 49.1582 3.52246L46.6973 2.73633L47.0049 0.0361328H63.1035L63.377 2.73633L61.3604 3.38574C60.3577 3.68197 59.583 4.26302 59.0361 5.12891C58.512 5.97201 58.25 7.30501 58.25 9.12793V33.9082C58.25 35.64 58.5348 36.973 59.1045 37.9072C59.6742 38.8187 60.4261 39.3997 61.3604 39.6504L63.4453 40.1973L63.1719 43H47.0049L46.8682 40.2656Z" fill="#3F836B"/>
</svg>