<svg width="41" height="43" viewBox="0 0 41 43" fill="none" xmlns="http://www.w3.org/2000/svg">
<path d="M0.831055 40.2656L3.12109 39.4453C3.98698 39.1263 4.64779 38.5566 5.10352 37.7363C5.55924 36.916 5.78711 35.9134 5.78711 34.7285V8.20508C5.78711 7.04297 5.54785 6.04036 5.06934 5.19727C4.61361 4.35417 3.96419 3.7959 3.12109 3.52246L0.660156 2.73633L0.967773 0.0361328H17.0664L17.3398 2.73633L15.3232 3.38574C14.3206 3.68197 13.5459 4.26302 12.999 5.12891C12.4749 5.97201 12.2129 7.30501 12.2129 9.12793V33.9082C12.2129 35.64 12.4977 36.973 13.0674 37.9072C13.637 38.8187 14.389 39.3997 15.3232 39.6504L17.4082 40.1973L17.1348 43H0.967773L0.831055 40.2656ZM23.8682 40.2656L26.1582 39.4453C27.0241 39.1263 27.6849 38.5566 28.1406 37.7363C28.5964 36.916 28.8242 35.9134 28.8242 34.7285V8.20508C28.8242 7.04297 28.585 6.04036 28.1064 5.19727C27.6507 4.35417 27.0013 3.7959 26.1582 3.52246L23.6973 2.73633L24.0049 0.0361328H40.1035L40.377 2.73633L38.3604 3.38574C37.3577 3.68197 36.583 4.26302 36.0361 5.12891C35.512 5.97201 35.25 7.30501 35.25 9.12793V33.9082C35.25 35.64 35.5348 36.973 36.1045 37.9072C36.6742 38.8187 37.4261 39.3997 38.3604 39.6504L40.4453 40.1973L40.1719 43H24.0049L23.8682 40.2656Z" fill="#3F836B"/>
</svg>