<svg width="18" height="43" viewBox="0 0 18 43" fill="none" xmlns="http://www.w3.org/2000/svg">
<path d="M0.793945 40.2656L3.08398 39.4453C3.94987 39.1263 4.61068 38.5566 5.06641 37.7363C5.52214 36.916 5.75 35.9134 5.75 34.7285V8.20508C5.75 7.04297 5.51074 6.04036 5.03223 5.19727C4.5765 4.35417 3.92708 3.7959 3.08398 3.52246L0.623047 2.73633L0.930664 0.0361328H17.0293L17.3027 2.73633L15.2861 3.38574C14.2835 3.68197 13.5088 4.26302 12.9619 5.12891C12.4378 5.97201 12.1758 7.30501 12.1758 9.12793V33.9082C12.1758 35.64 12.4606 36.973 13.0303 37.9072C13.5999 38.8187 14.3519 39.3997 15.2861 39.6504L17.3711 40.1973L17.0977 43H0.930664L0.793945 40.2656Z" fill="#F4B850"/>
</svg>