<svg width="66" height="44" viewBox="0 0 66 44" fill="none" xmlns="http://www.w3.org/2000/svg">
<path d="M0.520508 40.2656L2.81055 39.4453C3.67643 39.1263 4.33724 38.5566 4.79297 37.7363C5.2487 36.916 5.47656 35.9134 5.47656 34.7285V8.20508C5.47656 7.04297 5.2373 6.04036 4.75879 5.19727C4.30306 4.35417 3.65365 3.7959 2.81055 3.52246L0.349609 2.73633L0.657227 0.0361328H16.7559L17.0293 2.73633L15.0127 3.38574C14.0101 3.68197 13.2354 4.26302 12.6885 5.12891C12.1644 5.97201 11.9023 7.30501 11.9023 9.12793V33.9082C11.9023 35.64 12.1872 36.973 12.7568 37.9072C13.3265 38.8187 14.0785 39.3997 15.0127 39.6504L17.0977 40.1973L16.8242 43H0.657227L0.520508 40.2656ZM65.4619 2.73633L63.6162 3.24902C62.8643 3.47689 62.249 3.90983 61.7705 4.54785C61.3148 5.16309 60.8135 6.10872 60.2666 7.38477L45.8428 42.6582L40.5107 43.7861L28.001 8.99121C27.4997 7.57845 27.1009 6.57585 26.8047 5.9834C26.5312 5.39095 26.2008 4.91243 25.8135 4.54785C25.4489 4.16048 24.9134 3.7959 24.207 3.4541L22.4639 2.73633L22.6006 0.0361328H38.2207L38.4258 2.73633L36.9561 3.1123C36.0674 3.34017 35.4408 3.60221 35.0762 3.89844C34.7344 4.17188 34.5635 4.639 34.5635 5.2998C34.5635 5.84668 34.6774 6.57585 34.9053 7.4873C35.1559 8.39876 35.5547 9.73177 36.1016 11.4863L44.5781 36.4033L52.9863 13.2637C53.5104 11.8509 53.9092 10.6432 54.1826 9.64062C54.4788 8.63802 54.627 7.74935 54.627 6.97461C54.627 5.24284 53.8294 4.09212 52.2344 3.52246L50.1152 2.73633L50.3887 0.0361328H65.291L65.4619 2.73633Z" fill="#3F836B"/>
</svg>