<svg width="90" height="62" viewBox="0 0 90 62" fill="none" xmlns="http://www.w3.org/2000/svg">
<path d="M0.419922 58.0938L3.69141 56.9219C4.92839 56.4661 5.8724 55.6523 6.52344 54.4805C7.17448 53.3086 7.5 51.8763 7.5 50.1836V12.293C7.5 10.6328 7.1582 9.20052 6.47461 7.99609C5.82357 6.79167 4.89583 5.99414 3.69141 5.60352L0.175781 4.48047L0.615234 0.623047H23.6133L24.0039 4.48047L21.123 5.4082C19.6908 5.83138 18.584 6.66146 17.8027 7.89844C17.054 9.10286 16.6797 11.0072 16.6797 13.6113V49.0117C16.6797 51.4857 17.0866 53.39 17.9004 54.7246C18.7142 56.0267 19.7884 56.8568 21.123 57.2148L24.1016 57.9961L23.7109 62H0.615234L0.419922 58.0938ZM33.3301 58.0938L36.6016 56.9219C37.8385 56.4661 38.7826 55.6523 39.4336 54.4805C40.0846 53.3086 40.4102 51.8763 40.4102 50.1836V12.293C40.4102 10.6328 40.0684 9.20052 39.3848 7.99609C38.7337 6.79167 37.806 5.99414 36.6016 5.60352L33.0859 4.48047L33.5254 0.623047H56.5234L56.9141 4.48047L54.0332 5.4082C52.6009 5.83138 51.4941 6.66146 50.7129 7.89844C49.9642 9.10286 49.5898 11.0072 49.5898 13.6113V49.0117C49.5898 51.4857 49.9967 53.39 50.8105 54.7246C51.6243 56.0267 52.6986 56.8568 54.0332 57.2148L57.0117 57.9961L56.6211 62H33.5254L33.3301 58.0938ZM66.2402 58.0938L69.5117 56.9219C70.7487 56.4661 71.6927 55.6523 72.3438 54.4805C72.9948 53.3086 73.3203 51.8763 73.3203 50.1836V12.293C73.3203 10.6328 72.9785 9.20052 72.2949 7.99609C71.6439 6.79167 70.7161 5.99414 69.5117 5.60352L65.9961 4.48047L66.4355 0.623047H89.4336L89.8242 4.48047L86.9434 5.4082C85.5111 5.83138 84.4043 6.66146 83.623 7.89844C82.8743 9.10286 82.5 11.0072 82.5 13.6113V49.0117C82.5 51.4857 82.9069 53.39 83.7207 54.7246C84.5345 56.0267 85.6087 56.8568 86.9434 57.2148L89.9219 57.9961L89.5312 62H66.4355L66.2402 58.0938Z" fill="#F4B850"/>
</svg>
