<svg width="58" height="62" viewBox="0 0 58 62" fill="none" xmlns="http://www.w3.org/2000/svg">
<path d="M0.875 58.0938L4.14648 56.9219C5.38346 56.4661 6.32747 55.6523 6.97852 54.4805C7.62956 53.3086 7.95508 51.8763 7.95508 50.1836V12.293C7.95508 10.6328 7.61328 9.20052 6.92969 7.99609C6.27865 6.79167 5.35091 5.99414 4.14648 5.60352L0.630859 4.48047L1.07031 0.623047H24.0684L24.459 4.48047L21.5781 5.4082C20.1458 5.83138 19.0391 6.66146 18.2578 7.89844C17.5091 9.10286 17.1348 11.0072 17.1348 13.6113V49.0117C17.1348 51.4857 17.5417 53.39 18.3555 54.7246C19.1693 56.0267 20.2435 56.8568 21.5781 57.2148L24.5566 57.9961L24.166 62H1.07031L0.875 58.0938ZM33.7852 58.0938L37.0566 56.9219C38.2936 56.4661 39.2376 55.6523 39.8887 54.4805C40.5397 53.3086 40.8652 51.8763 40.8652 50.1836V12.293C40.8652 10.6328 40.5234 9.20052 39.8398 7.99609C39.1888 6.79167 38.2611 5.99414 37.0566 5.60352L33.541 4.48047L33.9805 0.623047H56.9785L57.3691 4.48047L54.4883 5.4082C53.056 5.83138 51.9492 6.66146 51.168 7.89844C50.4193 9.10286 50.0449 11.0072 50.0449 13.6113V49.0117C50.0449 51.4857 50.4518 53.39 51.2656 54.7246C52.0794 56.0267 53.1536 56.8568 54.4883 57.2148L57.4668 57.9961L57.0762 62H33.9805L33.7852 58.0938Z" fill="#F4B850"/>
</svg>
