<svg width="94" height="64" viewBox="0 0 94 64" fill="none" xmlns="http://www.w3.org/2000/svg">
<path d="M0.724609 58.0938L3.99609 56.9219C5.23307 56.4661 6.17708 55.6523 6.82812 54.4805C7.47917 53.3086 7.80469 51.8763 7.80469 50.1836V12.293C7.80469 10.6328 7.46289 9.20052 6.7793 7.99609C6.12826 6.79167 5.20052 5.99414 3.99609 5.60352L0.480469 4.48047L0.919922 0.623047H23.918L24.3086 4.48047L21.4277 5.4082C19.9954 5.83138 18.8887 6.66146 18.1074 7.89844C17.3587 9.10286 16.9844 11.0072 16.9844 13.6113V49.0117C16.9844 51.4857 17.3913 53.39 18.2051 54.7246C19.0189 56.0267 20.0931 56.8568 21.4277 57.2148L24.4062 57.9961L24.0156 62H0.919922L0.724609 58.0938ZM93.498 4.48047L90.8613 5.21289C89.7871 5.53841 88.9082 6.1569 88.2246 7.06836C87.5736 7.94727 86.8574 9.29818 86.0762 11.1211L65.4707 61.5117L57.8535 63.123L39.9824 13.416C39.2663 11.3978 38.6966 9.96549 38.2734 9.11914C37.8828 8.27279 37.4108 7.58919 36.8574 7.06836C36.3366 6.51497 35.5716 5.99414 34.5625 5.50586L32.0723 4.48047L32.2676 0.623047H54.582L54.875 4.48047L52.7754 5.01758C51.5059 5.3431 50.6107 5.71745 50.0898 6.14062C49.6016 6.53125 49.3574 7.19857 49.3574 8.14258C49.3574 8.92383 49.5202 9.96549 49.8457 11.2676C50.2038 12.5697 50.7734 14.474 51.5547 16.9805L63.6641 52.5762L75.6758 19.5195C76.4245 17.5013 76.9941 15.776 77.3848 14.3438C77.8079 12.9115 78.0195 11.6419 78.0195 10.5352C78.0195 8.0612 76.8802 6.41732 74.6016 5.60352L71.5742 4.48047L71.9648 0.623047H93.2539L93.498 4.48047Z" fill="#F4B850"/>
</svg>
