<svg width="94" height="64" viewBox="0 0 94 64" fill="none" xmlns="http://www.w3.org/2000/svg">
<path d="M62.0254 4.48047L59.3887 5.21289C58.3145 5.53841 57.4355 6.1569 56.752 7.06836C56.1009 7.94727 55.3848 9.29818 54.6035 11.1211L33.998 61.5117L26.3809 63.123L8.50977 13.416C7.79362 11.3978 7.22396 9.96549 6.80078 9.11914C6.41016 8.27279 5.93815 7.58919 5.38477 7.06836C4.86393 6.51497 4.09896 5.99414 3.08984 5.50586L0.599609 4.48047L0.794922 0.623047H23.1094L23.4023 4.48047L21.3027 5.01758C20.0332 5.3431 19.138 5.71745 18.6172 6.14062C18.1289 6.53125 17.8848 7.19857 17.8848 8.14258C17.8848 8.92383 18.0475 9.96549 18.373 11.2676C18.7311 12.5697 19.3008 14.474 20.082 16.9805L32.1914 52.5762L44.2031 19.5195C44.9518 17.5013 45.5215 15.776 45.9121 14.3438C46.3353 12.9115 46.5469 11.6419 46.5469 10.5352C46.5469 8.0612 45.4076 6.41732 43.1289 5.60352L40.1016 4.48047L40.4922 0.623047H61.7812L62.0254 4.48047ZM69.9355 58.0938L73.207 56.9219C74.444 56.4661 75.388 55.6523 76.0391 54.4805C76.6901 53.3086 77.0156 51.8763 77.0156 50.1836V12.293C77.0156 10.6328 76.6738 9.20052 75.9902 7.99609C75.3392 6.79167 74.4115 5.99414 73.207 5.60352L69.6914 4.48047L70.1309 0.623047H93.1289L93.5195 4.48047L90.6387 5.4082C89.2064 5.83138 88.0996 6.66146 87.3184 7.89844C86.5697 9.10286 86.1953 11.0072 86.1953 13.6113V49.0117C86.1953 51.4857 86.6022 53.39 87.416 54.7246C88.2298 56.0267 89.304 56.8568 90.6387 57.2148L93.6172 57.9961L93.2266 62H70.1309L69.9355 58.0938Z" fill="#F4B850"/>
</svg>
