<svg width="25" height="62" viewBox="0 0 25 62" fill="none" xmlns="http://www.w3.org/2000/svg">
<path d="M0.419922 58.0938L3.69141 56.9219C4.92839 56.4661 5.8724 55.6523 6.52344 54.4805C7.17448 53.3086 7.5 51.8763 7.5 50.1836V12.293C7.5 10.6328 7.1582 9.20052 6.47461 7.99609C5.82357 6.79167 4.89583 5.99414 3.69141 5.60352L0.175781 4.48047L0.615234 0.623047H23.6133L24.0039 4.48047L21.123 5.4082C19.6908 5.83138 18.584 6.66146 17.8027 7.89844C17.054 9.10286 16.6797 11.0072 16.6797 13.6113V49.0117C16.6797 51.4857 17.0866 53.39 17.9004 54.7246C18.7142 56.0267 19.7884 56.8568 21.123 57.2148L24.1016 57.9961L23.7109 62H0.615234L0.419922 58.0938Z" fill="#F4B850"/>
</svg>
