<svg width="62" height="64" viewBox="0 0 62 64" fill="none" xmlns="http://www.w3.org/2000/svg">
<path d="M61.7617 4.48047L59.125 5.21289C58.0508 5.53841 57.1719 6.1569 56.4883 7.06836C55.8372 7.94727 55.1211 9.29818 54.3398 11.1211L33.7344 61.5117L26.1172 63.123L8.24609 13.416C7.52995 11.3978 6.96029 9.96549 6.53711 9.11914C6.14648 8.27279 5.67448 7.58919 5.12109 7.06836C4.60026 6.51497 3.83529 5.99414 2.82617 5.50586L0.335938 4.48047L0.53125 0.623047H22.8457L23.1387 4.48047L21.0391 5.01758C19.7695 5.3431 18.8743 5.71745 18.3535 6.14062C17.8652 6.53125 17.6211 7.19857 17.6211 8.14258C17.6211 8.92383 17.7839 9.96549 18.1094 11.2676C18.4674 12.5697 19.0371 14.474 19.8184 16.9805L31.9277 52.5762L43.9395 19.5195C44.6882 17.5013 45.2578 15.776 45.6484 14.3438C46.0716 12.9115 46.2832 11.6419 46.2832 10.5352C46.2832 8.0612 45.1439 6.41732 42.8652 5.60352L39.8379 4.48047L40.2285 0.623047H61.5176L61.7617 4.48047Z" fill="#F4B850"/>
</svg>
